<svg width="256" height="256" viewBox="0 0 256 256" fill="none" xmlns="http://www.w3.org/2000/svg">
<rect x="8" y="8" width="240" height="240" rx="48" fill="url(#paint0_linear_61_322)"/>
<path d="M192 160H224L192 192V160Z" fill="white"/>
<path d="M64 160H32L64 192V160Z" fill="white"/>
<rect x="192" y="128" width="32" height="32" fill="white"/>
<rect x="32" y="128" width="32" height="32" fill="white"/>
<path d="M128 32C153.461 32 177.878 42.1147 195.882 60.1182C213.885 78.1217 224 102.539 224 128H192C192 111.026 185.257 94.7474 173.255 82.7451C161.253 70.7428 144.974 64 128 64C111.026 64 94.7474 70.7428 82.7451 82.7451C70.7428 94.7474 64 111.026 64 128H32C32 102.539 42.1147 78.1217 60.1182 60.1182C78.1217 42.1147 102.539 32 128 32Z" fill="white"/>
<path d="M182 182H184V184L182 182Z" fill="white" fill-opacity="0.8"/>
<path d="M74 182H72V184L74 182Z" fill="white" fill-opacity="0.8"/>
<rect x="182" y="128" width="2" height="54" fill="white" fill-opacity="0.8"/>
<rect x="72" y="128" width="2" height="54" fill="white" fill-opacity="0.8"/>
<path d="M128 72C142.852 72 157.096 77.9003 167.598 88.4023C178.1 98.9044 184 113.148 184 128H182C182 113.678 176.311 99.9434 166.184 89.8164C156.057 79.6894 142.322 74 128 74C113.678 74 99.9434 79.6894 89.8164 89.8164C79.6894 99.9434 74 113.678 74 128H72C72 113.148 77.9003 98.9044 88.4023 88.4023C98.9044 77.9003 113.148 72 128 72Z" fill="white" fill-opacity="0.8"/>
<path d="M174 174H176V176L174 174Z" fill="white" fill-opacity="0.6"/>
<path d="M82 174H80V176L82 174Z" fill="white" fill-opacity="0.6"/>
<rect x="174" y="128" width="2" height="46" fill="white" fill-opacity="0.6"/>
<rect x="80" y="128" width="2" height="46" fill="white" fill-opacity="0.6"/>
<path d="M128 80C140.73 80 152.94 85.0568 161.941 94.0586C170.943 103.06 176 115.27 176 128H174C174 115.8 169.154 104.099 160.527 95.4727C151.901 86.846 140.2 82 128 82C115.8 82 104.099 86.846 95.4727 95.4727C86.846 104.099 82 115.8 82 128H80C80 115.27 85.0568 103.06 94.0586 94.0586C103.06 85.0569 115.27 80 128 80Z" fill="white" fill-opacity="0.6"/>
<path d="M166 166H168V168L166 166Z" fill="white" fill-opacity="0.4"/>
<path d="M90 166H88V168L90 166Z" fill="white" fill-opacity="0.4"/>
<rect x="166" y="128" width="2" height="38" fill="white" fill-opacity="0.4"/>
<rect x="88" y="128" width="2" height="38" fill="white" fill-opacity="0.4"/>
<path d="M128 88C133.253 88 138.455 89.0347 143.308 91.0449C148.161 93.0551 152.57 96.0015 156.284 99.7158C159.998 103.43 162.945 107.839 164.955 112.692C166.965 117.545 168 122.747 168 128H166C166 123.01 165.017 118.068 163.107 113.458C161.198 108.848 158.399 104.659 154.87 101.13C151.341 97.6013 147.152 94.8023 142.542 92.8926C137.932 90.9829 132.99 90 128 90C123.01 90 118.068 90.9829 113.458 92.8926C108.848 94.8023 104.659 97.6013 101.13 101.13C97.6013 104.659 94.8023 108.848 92.8926 113.458C90.9829 118.068 90 123.01 90 128H88C88 122.747 89.0347 117.545 91.0449 112.692C93.0551 107.839 96.0015 103.43 99.7158 99.7158C103.43 96.0015 107.839 93.0551 112.692 91.0449C117.545 89.0347 122.747 88 128 88Z" fill="white" fill-opacity="0.4"/>
<path d="M158 158H160V160L158 158Z" fill="white" fill-opacity="0.2"/>
<path d="M98 158H96V160L98 158Z" fill="white" fill-opacity="0.2"/>
<rect x="158" y="128" width="2" height="30" fill="white" fill-opacity="0.2"/>
<rect x="96" y="128" width="2" height="30" fill="white" fill-opacity="0.2"/>
<path d="M128 96C136.487 96 144.626 99.3719 150.627 105.373C156.628 111.374 160 119.513 160 128H158C158 120.044 154.839 112.413 149.213 106.787C143.587 101.161 135.956 98 128 98C120.044 98 112.413 101.161 106.787 106.787C101.161 112.413 98 120.044 98 128H96C96 119.513 99.3719 111.374 105.373 105.373C111.374 99.3719 119.513 96 128 96Z" fill="white" fill-opacity="0.2"/>
<defs>
<linearGradient id="paint0_linear_61_322" x1="8" y1="8" x2="248" y2="248" gradientUnits="userSpaceOnUse">
<stop stop-color="#667EEA"/>
<stop offset="1" stop-color="#764BA2"/>
</linearGradient>
</defs>
</svg>
